<svg width="908" height="908" viewBox="0 0 908 908" fill="none" xmlns="http://www.w3.org/2000/svg">
<g clip-path="url(#clip0_20_164)">
<rect width="908" height="908" fill="#FAF3FF"/>
<path d="M631.999 113.5C554.667 113.5 487.891 158.786 454.333 224.843C420.775 158.786 353.999 113.5 276.668 113.5C165.816 113.5 76 206.456 76 320.864C76 435.272 144.743 540.147 233.576 626.293C322.408 712.44 454.333 794.5 454.333 794.5C454.333 794.5 581.983 713.802 675.091 626.293C774.403 532.996 832.667 435.613 832.667 320.864C832.667 206.116 742.85 113.5 631.999 113.5Z" fill="#6631C4"/>
<path d="M837.572 415.592C758.608 392.905 714.829 372.995 642.228 330.559C632.665 326.269 627.192 325.594 617.184 328.059C577.06 339.443 554.573 346.84 514.503 362.572C475.575 377.067 443.162 399.481 392.287 430.098C388.196 434.468 388.617 436.74 392.287 440.602C397.4 445.269 401.342 446.495 408.816 448.105C414.168 449.317 417.117 449.047 422.34 447.104C448.854 435.201 463.05 427.197 488.457 413.091C513.75 401.834 526.493 397.838 548.062 392.583C568.577 386.916 579.295 383.443 596.648 374.576C604.662 371.075 606.665 373.576 600.654 378.078C588.263 384.975 581.146 388.653 566.094 392.583C531.211 402 514.637 406.139 493.967 416.593L442.876 444.603C437.582 447.158 434.622 448.706 429.353 451.606C427.017 452.383 425.698 452.705 423.342 453.107C422.41 453.461 422.183 453.893 422.34 455.108C423.585 456.571 424.379 457.023 425.846 457.608C435.512 465.451 440.7 468.623 447.5 479C448.822 481.518 448.849 483.155 452.393 481.118C483.403 463.825 500.827 455.898 532.034 447.104C561.779 437.032 578.108 431.86 606.164 424.096C613.932 422.975 619.688 422.595 620.189 424.096C620.69 425.096 616.625 428.036 611.674 429.598L589.635 436.6C580.431 438.728 574.867 440.211 564.591 443.103C528.854 451.304 513.586 456.068 494.467 466.612C477.012 475.147 467.997 479.761 451.5 488C455.109 497.38 455.534 504.929 453 514C449 522 443 526.364 436.5 528.5C428.002 531.021 420.843 529.517 412.347 527.03L406.813 526C402.433 528.232 399.758 532.186 397.296 536.139C394.834 542.69 399.106 545.974 406.813 546.143C427.349 543.642 438.369 538.434 461.409 526.635C490.905 511.531 508.492 507.128 536.542 498.124C580.443 486.67 601.422 483.165 636.718 478.617C640.725 478.116 641.727 483.118 638.221 484.119C605.195 489.818 585.901 493.748 557.078 506.627C518.536 522.777 495.107 529.353 461.91 552.145C453.896 557.647 453.896 568.651 460.908 572.653C468.922 577.655 476.423 576.237 487.455 573.653L577.113 540.14C599.349 535.426 613.557 533.573 645.233 533.138C677.814 542.114 695.099 550.833 729.381 551.645L767.448 552.645L837.572 415.592Z" fill="#FAF3FF"/>
<path d="M71 259.479C152.262 263.554 196.396 257.329 274.195 240.748C291.592 238.567 315.72 241.85 315.72 241.85C315.72 241.85 397.237 275.491 446.385 296.941C458.772 306.42 464.244 312.667 471.3 325.588L495 365.5C475.928 375.331 465.258 380.893 446.777 392.052C433.87 384.271 428.549 373.106 423.685 358.092C397.419 352.358 379.62 344.646 351.708 329.445C337.614 338.157 328.709 346.5 307.415 363.955C320.083 344.457 327.398 318.654 326.793 314.019C326.188 309.385 321.81 312.169 321.257 314.373C321.233 315.224 320.703 315.475 320.149 318.78C320.638 323.333 310.737 344.673 303.539 357.344C295.788 369.464 291.79 375.243 291.912 373.871C290.003 374.959 284.016 350.853 283.607 350.379C283.199 349.906 282.257 349.278 281.393 349.278C279.732 349.278 278.617 350.522 278.624 351.481C278.624 369.11 299.11 409.878 321.257 417.04C348.984 430.185 364.302 435.709 391.572 445.136C440.35 462.215 465.632 498.599 442.5 521.5C434 528.5 416.543 526.733 398.216 519.509C320.736 486.495 280.9 472.508 225.473 467.173C184.7 469.32 162.468 468.151 127.474 448.442C109.081 430.398 98.7666 420.29 75.4293 417.04L71 259.479Z" fill="#FAF3FF"/>
<path d="M359.13 342.955C358.843 342.318 367.933 345.144 377.805 351.743C384.899 356.872 395.93 357.235 395.93 357.235C396.026 357.786 408.252 393.143 412.962 413.026C408.607 414.691 406.021 417.12 403.256 418.519C393.919 409.521 389.003 403.391 384.071 391.451C384.275 371.743 381.242 371.037 371.213 364.925C363.404 354.476 359.13 342.955 359.13 342.955Z" fill="#FAF3FF"/>
<path d="M414.45 370.276C414.45 382.909 411.618 394.104 419.394 408.152L438.618 396.64C425.024 389.058 426.551 382.828 414.45 370.276Z" fill="#FAF3FF"/>
<g clip-path="url(#clip1_20_164)">
<path d="M610.666 482.693C610.455 482.706 610.238 482.711 610.015 482.699C609.073 482.65 608.032 482.389 607.062 481.325C605.325 479.836 603.64 476.717 602.009 472.814C600.356 468.858 598.78 464.054 597.472 459.173C596.164 454.293 595.127 449.344 594.581 445.092C594.044 440.916 593.943 437.387 594.693 435.225C595.09 433.496 596.072 432.658 597.03 432.193C594.739 430.948 592.478 431.855 590.442 434.049C588.052 436.625 586.915 444.975 591.172 460.861C595.429 476.748 600.588 483.411 603.946 484.447L603.969 484.454L603.992 484.464C606.965 485.717 609.345 485.143 610.666 482.693Z" fill="#6631C4"/>
<g clip-path="url(#clip2_20_164)">
<path d="M594.926 476.535L594.924 476.544L594.912 476.559L594.767 476.661L594.619 476.557L594.615 476.552L594.611 476.535L594.635 475.918L594.719 475.959V475.96L594.728 475.962L594.75 475.969L594.761 475.972L594.773 475.969L594.804 475.963V475.965L594.816 475.959L594.899 475.918L594.926 476.535ZM595.367 476.642L595.083 476.511L595.056 475.87L595.316 475.741L595.367 476.642ZM594.477 475.869L594.452 476.511L594.169 476.641L594.219 475.74L594.477 475.869Z" stroke="white" stroke-width="0.1"/>
<path d="M591.262 444.982C592.331 445.424 593.295 446.081 594.093 446.913C594.904 446.125 595.856 445.493 596.901 445.05C598.452 444.414 600.23 444.3 601.777 445.184C603.325 446.068 604.115 447.651 604.335 449.297C604.475 450.357 604.394 451.496 604.106 452.639C605.233 452.904 606.291 453.401 607.211 454.097C608.58 455.151 609.555 456.697 609.555 458.52C609.555 460.334 608.591 461.874 607.233 462.924C606.343 463.604 605.322 464.096 604.234 464.371C604.54 465.481 604.623 466.608 604.47 467.663C604.227 469.352 603.366 470.949 601.779 471.856C600.181 472.77 598.341 472.703 596.737 472.058C595.669 471.616 594.705 470.959 593.908 470.127C593.052 470.943 592.096 471.584 591.099 471.99C589.548 472.626 587.77 472.74 586.222 471.856C584.674 470.972 583.885 469.389 583.665 467.743C583.531 466.625 583.608 465.492 583.893 464.401C582.767 464.134 581.71 463.638 580.788 462.943C579.419 461.89 578.444 460.345 578.444 458.52C578.444 456.706 579.409 455.167 580.767 454.116C581.656 453.436 582.676 452.943 583.764 452.668C583.46 451.598 583.379 450.478 583.528 449.376C583.772 447.688 584.634 446.091 586.222 445.184C587.818 444.272 589.658 444.337 591.262 444.982Z" fill="#D9B5FF"/>
</g>
</g>
</g>
<defs>
<clipPath id="clip0_20_164">
<rect width="908" height="908" fill="white"/>
</clipPath>
<clipPath id="clip1_20_164">
<rect width="64.4733" height="64.4733" fill="white" transform="translate(620.276 421) rotate(75)"/>
</clipPath>
<clipPath id="clip2_20_164">
<rect width="32" height="33" fill="white" transform="translate(578 444)"/>
</clipPath>
</defs>
</svg>
